<svg xmlns="http://www.w3.org/2000/svg" viewBox="0 0 180 180" width="180" height="180">
  <circle cx="90" cy="90" r="85" stroke="url(#g)" stroke-width="8" fill="none"/>
  <path d="M43 95c10-1 17-4 22-11 5 7 12 10 22 11v-10c-7-1-12-4-17-10 5-6 10-9 17-10v-10c-10 1-17 4-22 11-5-7-12-10-22-11v10c7 1 12 4 17 10-5 6-10 9-17 10v10Z" fill="url(#g)"/>
  <defs>
    <linearGradient id="g" x1="21" y1="21" x2="159" y2="159" gradientUnits="userSpaceOnUse">
      <stop stop-color="#87af9b"/>
      <stop offset="1" stop-color="#ee9dae"/>
    </linearGradient>
  </defs>
</svg>