<svg xmlns="http://www.w3.org/2000/svg" viewBox="0 0 192 192" width="192" height="192">
  <circle cx="96" cy="96" r="90" stroke="url(#g)" stroke-width="6" fill="none"/>
  <path d="M58 128c13-1 23-6 30-15 7 9 17 14 30 15v-13c-9-1-16-6-21-13 5-7 12-11 21-13v-13c-13 1-23 6-30 15-7-9-17-14-30-15v13c9 1 16 6 21 13-5 7-12 11-21 13v13Z" fill="url(#g)"/>
  <defs>
    <linearGradient id="g" x1="28" y1="28" x2="164" y2="164" gradientUnits="userSpaceOnUse">
      <stop stop-color="#87af9b"/>
      <stop offset="1" stop-color="#ee9dae"/>
    </linearGradient>
  </defs>
</svg>