<svg xmlns="http://www.w3.org/2000/svg" viewBox="0 0 512 512" width="512" height="512">
  <circle cx="256" cy="256" r="240" stroke="url(#g)" stroke-width="16" fill="none"/>
  <path d="M154 341c35-3 64-17 85-42 21 25 50 39 85 42v-36c-25-4-44-15-59-35 15-20 34-31 59-35v-36c-35 3-64 17-85 42-21-25-50-39-85-42v36c25 4 44 15 59 35-15 20-34 31-59 35v36Z" fill="url(#g)"/>
  <defs>
    <linearGradient id="g" x1="76" y1="76" x2="436" y2="436" gradientUnits="userSpaceOnUse">
      <stop stop-color="#87af9b"/>
      <stop offset="1" stop-color="#ee9dae"/>
    </linearGradient>
  </defs>
</svg>